<svg version="1.1" xmlns="http://www.w3.org/2000/svg" xmlns:xlink="http://www.w3.org/1999/xlink" width="827" height="611"><defs/><g><text fill="#eeeeee" stroke="none" font-family="Arial" font-size="24px" font-style="normal" font-weight="normal" text-decoration="none" x="0" y="0">UNREGISTERED</text><text fill="#eeeeee" stroke="none" font-family="Arial" font-size="24px" font-style="normal" font-weight="normal" text-decoration="none" x="0" y="30">UNREGISTERED</text><text fill="#eeeeee" stroke="none" font-family="Arial" font-size="24px" font-style="normal" font-weight="normal" text-decoration="none" x="0" y="60">UNREGISTERED</text><text fill="#eeeeee" stroke="none" font-family="Arial" font-size="24px" font-style="normal" font-weight="normal" text-decoration="none" x="0" y="90">UNREGISTERED</text><text fill="#eeeeee" stroke="none" font-family="Arial" font-size="24px" font-style="normal" font-weight="normal" text-decoration="none" x="0" y="120">UNREGISTERED</text><text fill="#eeeeee" stroke="none" font-family="Arial" font-size="24px" font-style="normal" font-weight="normal" text-decoration="none" x="0" y="150">UNREGISTERED</text><text fill="#eeeeee" stroke="none" font-family="Arial" font-size="24px" font-style="normal" font-weight="normal" text-decoration="none" x="0" y="180">UNREGISTERED</text><text fill="#eeeeee" stroke="none" font-family="Arial" font-size="24px" font-style="normal" font-weight="normal" text-decoration="none" x="0" y="210">UNREGISTERED</text><text fill="#eeeeee" stroke="none" font-family="Arial" font-size="24px" font-style="normal" font-weight="normal" text-decoration="none" x="0" y="240">UNREGISTERED</text><text fill="#eeeeee" stroke="none" font-family="Arial" font-size="24px" font-style="normal" font-weight="normal" text-decoration="none" x="0" y="270">UNREGISTERED</text><text fill="#eeeeee" stroke="none" font-family="Arial" font-size="24px" font-style="normal" font-weight="normal" text-decoration="none" x="0" y="300">UNREGISTERED</text><text fill="#eeeeee" stroke="none" font-family="Arial" font-size="24px" font-style="normal" font-weight="normal" text-decoration="none" x="0" y="330">UNREGISTERED</text><text fill="#eeeeee" stroke="none" font-family="Arial" font-size="24px" font-style="normal" font-weight="normal" text-decoration="none" x="0" y="360">UNREGISTERED</text><text fill="#eeeeee" stroke="none" font-family="Arial" font-size="24px" font-style="normal" font-weight="normal" text-decoration="none" x="0" y="390">UNREGISTERED</text><text fill="#eeeeee" stroke="none" font-family="Arial" font-size="24px" font-style="normal" font-weight="normal" text-decoration="none" x="0" y="420">UNREGISTERED</text><text fill="#eeeeee" stroke="none" font-family="Arial" font-size="24px" font-style="normal" font-weight="normal" text-decoration="none" x="0" y="450">UNREGISTERED</text><text fill="#eeeeee" stroke="none" font-family="Arial" font-size="24px" font-style="normal" font-weight="normal" text-decoration="none" x="0" y="480">UNREGISTERED</text><text fill="#eeeeee" stroke="none" font-family="Arial" font-size="24px" font-style="normal" font-weight="normal" text-decoration="none" x="0" y="510">UNREGISTERED</text><text fill="#eeeeee" stroke="none" font-family="Arial" font-size="24px" font-style="normal" font-weight="normal" text-decoration="none" x="0" y="540">UNREGISTERED</text><text fill="#eeeeee" stroke="none" font-family="Arial" font-size="24px" font-style="normal" font-weight="normal" text-decoration="none" x="0" y="570">UNREGISTERED</text><text fill="#eeeeee" stroke="none" font-family="Arial" font-size="24px" font-style="normal" font-weight="normal" text-decoration="none" x="0" y="600">UNREGISTERED</text><text fill="#eeeeee" stroke="none" font-family="Arial" font-size="24px" font-style="normal" font-weight="normal" text-decoration="none" x="200" y="0">UNREGISTERED</text><text fill="#eeeeee" stroke="none" font-family="Arial" font-size="24px" font-style="normal" font-weight="normal" text-decoration="none" x="200" y="30">UNREGISTERED</text><text fill="#eeeeee" stroke="none" font-family="Arial" font-size="24px" font-style="normal" font-weight="normal" text-decoration="none" x="200" y="60">UNREGISTERED</text><text fill="#eeeeee" stroke="none" font-family="Arial" font-size="24px" font-style="normal" font-weight="normal" text-decoration="none" x="200" y="90">UNREGISTERED</text><text fill="#eeeeee" stroke="none" font-family="Arial" font-size="24px" font-style="normal" font-weight="normal" text-decoration="none" x="200" y="120">UNREGISTERED</text><text fill="#eeeeee" stroke="none" font-family="Arial" font-size="24px" font-style="normal" font-weight="normal" text-decoration="none" x="200" y="150">UNREGISTERED</text><text fill="#eeeeee" stroke="none" font-family="Arial" font-size="24px" font-style="normal" font-weight="normal" text-decoration="none" x="200" y="180">UNREGISTERED</text><text fill="#eeeeee" stroke="none" font-family="Arial" font-size="24px" font-style="normal" font-weight="normal" text-decoration="none" x="200" y="210">UNREGISTERED</text><text fill="#eeeeee" stroke="none" font-family="Arial" font-size="24px" font-style="normal" font-weight="normal" text-decoration="none" x="200" y="240">UNREGISTERED</text><text fill="#eeeeee" stroke="none" font-family="Arial" font-size="24px" font-style="normal" font-weight="normal" text-decoration="none" x="200" y="270">UNREGISTERED</text><text fill="#eeeeee" stroke="none" font-family="Arial" font-size="24px" font-style="normal" font-weight="normal" text-decoration="none" x="200" y="300">UNREGISTERED</text><text fill="#eeeeee" stroke="none" font-family="Arial" font-size="24px" font-style="normal" font-weight="normal" text-decoration="none" x="200" y="330">UNREGISTERED</text><text fill="#eeeeee" stroke="none" font-family="Arial" font-size="24px" font-style="normal" font-weight="normal" text-decoration="none" x="200" y="360">UNREGISTERED</text><text fill="#eeeeee" stroke="none" font-family="Arial" font-size="24px" font-style="normal" font-weight="normal" text-decoration="none" x="200" y="390">UNREGISTERED</text><text fill="#eeeeee" stroke="none" font-family="Arial" font-size="24px" font-style="normal" font-weight="normal" text-decoration="none" x="200" y="420">UNREGISTERED</text><text fill="#eeeeee" stroke="none" font-family="Arial" font-size="24px" font-style="normal" font-weight="normal" text-decoration="none" x="200" y="450">UNREGISTERED</text><text fill="#eeeeee" stroke="none" font-family="Arial" font-size="24px" font-style="normal" font-weight="normal" text-decoration="none" x="200" y="480">UNREGISTERED</text><text fill="#eeeeee" stroke="none" font-family="Arial" font-size="24px" font-style="normal" font-weight="normal" text-decoration="none" x="200" y="510">UNREGISTERED</text><text fill="#eeeeee" stroke="none" font-family="Arial" font-size="24px" font-style="normal" font-weight="normal" text-decoration="none" x="200" y="540">UNREGISTERED</text><text fill="#eeeeee" stroke="none" font-family="Arial" font-size="24px" font-style="normal" font-weight="normal" text-decoration="none" x="200" y="570">UNREGISTERED</text><text fill="#eeeeee" stroke="none" font-family="Arial" font-size="24px" font-style="normal" font-weight="normal" text-decoration="none" x="200" y="600">UNREGISTERED</text><text fill="#eeeeee" stroke="none" font-family="Arial" font-size="24px" font-style="normal" font-weight="normal" text-decoration="none" x="400" y="0">UNREGISTERED</text><text fill="#eeeeee" stroke="none" font-family="Arial" font-size="24px" font-style="normal" font-weight="normal" text-decoration="none" x="400" y="30">UNREGISTERED</text><text fill="#eeeeee" stroke="none" font-family="Arial" font-size="24px" font-style="normal" font-weight="normal" text-decoration="none" x="400" y="60">UNREGISTERED</text><text fill="#eeeeee" stroke="none" font-family="Arial" font-size="24px" font-style="normal" font-weight="normal" text-decoration="none" x="400" y="90">UNREGISTERED</text><text fill="#eeeeee" stroke="none" font-family="Arial" font-size="24px" font-style="normal" font-weight="normal" text-decoration="none" x="400" y="120">UNREGISTERED</text><text fill="#eeeeee" stroke="none" font-family="Arial" font-size="24px" font-style="normal" font-weight="normal" text-decoration="none" x="400" y="150">UNREGISTERED</text><text fill="#eeeeee" stroke="none" font-family="Arial" font-size="24px" font-style="normal" font-weight="normal" text-decoration="none" x="400" y="180">UNREGISTERED</text><text fill="#eeeeee" stroke="none" font-family="Arial" font-size="24px" font-style="normal" font-weight="normal" text-decoration="none" x="400" y="210">UNREGISTERED</text><text fill="#eeeeee" stroke="none" font-family="Arial" font-size="24px" font-style="normal" font-weight="normal" text-decoration="none" x="400" y="240">UNREGISTERED</text><text fill="#eeeeee" stroke="none" font-family="Arial" font-size="24px" font-style="normal" font-weight="normal" text-decoration="none" x="400" y="270">UNREGISTERED</text><text fill="#eeeeee" stroke="none" font-family="Arial" font-size="24px" font-style="normal" font-weight="normal" text-decoration="none" x="400" y="300">UNREGISTERED</text><text fill="#eeeeee" stroke="none" font-family="Arial" font-size="24px" font-style="normal" font-weight="normal" text-decoration="none" x="400" y="330">UNREGISTERED</text><text fill="#eeeeee" stroke="none" font-family="Arial" font-size="24px" font-style="normal" font-weight="normal" text-decoration="none" x="400" y="360">UNREGISTERED</text><text fill="#eeeeee" stroke="none" font-family="Arial" font-size="24px" font-style="normal" font-weight="normal" text-decoration="none" x="400" y="390">UNREGISTERED</text><text fill="#eeeeee" stroke="none" font-family="Arial" font-size="24px" font-style="normal" font-weight="normal" text-decoration="none" x="400" y="420">UNREGISTERED</text><text fill="#eeeeee" stroke="none" font-family="Arial" font-size="24px" font-style="normal" font-weight="normal" text-decoration="none" x="400" y="450">UNREGISTERED</text><text fill="#eeeeee" stroke="none" font-family="Arial" font-size="24px" font-style="normal" font-weight="normal" text-decoration="none" x="400" y="480">UNREGISTERED</text><text fill="#eeeeee" stroke="none" font-family="Arial" font-size="24px" font-style="normal" font-weight="normal" text-decoration="none" x="400" y="510">UNREGISTERED</text><text fill="#eeeeee" stroke="none" font-family="Arial" font-size="24px" font-style="normal" font-weight="normal" text-decoration="none" x="400" y="540">UNREGISTERED</text><text fill="#eeeeee" stroke="none" font-family="Arial" font-size="24px" font-style="normal" font-weight="normal" text-decoration="none" x="400" y="570">UNREGISTERED</text><text fill="#eeeeee" stroke="none" font-family="Arial" font-size="24px" font-style="normal" font-weight="normal" text-decoration="none" x="400" y="600">UNREGISTERED</text><text fill="#eeeeee" stroke="none" font-family="Arial" font-size="24px" font-style="normal" font-weight="normal" text-decoration="none" x="600" y="0">UNREGISTERED</text><text fill="#eeeeee" stroke="none" font-family="Arial" font-size="24px" font-style="normal" font-weight="normal" text-decoration="none" x="600" y="30">UNREGISTERED</text><text fill="#eeeeee" stroke="none" font-family="Arial" font-size="24px" font-style="normal" font-weight="normal" text-decoration="none" x="600" y="60">UNREGISTERED</text><text fill="#eeeeee" stroke="none" font-family="Arial" font-size="24px" font-style="normal" font-weight="normal" text-decoration="none" x="600" y="90">UNREGISTERED</text><text fill="#eeeeee" stroke="none" font-family="Arial" font-size="24px" font-style="normal" font-weight="normal" text-decoration="none" x="600" y="120">UNREGISTERED</text><text fill="#eeeeee" stroke="none" font-family="Arial" font-size="24px" font-style="normal" font-weight="normal" text-decoration="none" x="600" y="150">UNREGISTERED</text><text fill="#eeeeee" stroke="none" font-family="Arial" font-size="24px" font-style="normal" font-weight="normal" text-decoration="none" x="600" y="180">UNREGISTERED</text><text fill="#eeeeee" stroke="none" font-family="Arial" font-size="24px" font-style="normal" font-weight="normal" text-decoration="none" x="600" y="210">UNREGISTERED</text><text fill="#eeeeee" stroke="none" font-family="Arial" font-size="24px" font-style="normal" font-weight="normal" text-decoration="none" x="600" y="240">UNREGISTERED</text><text fill="#eeeeee" stroke="none" font-family="Arial" font-size="24px" font-style="normal" font-weight="normal" text-decoration="none" x="600" y="270">UNREGISTERED</text><text fill="#eeeeee" stroke="none" font-family="Arial" font-size="24px" font-style="normal" font-weight="normal" text-decoration="none" x="600" y="300">UNREGISTERED</text><text fill="#eeeeee" stroke="none" font-family="Arial" font-size="24px" font-style="normal" font-weight="normal" text-decoration="none" x="600" y="330">UNREGISTERED</text><text fill="#eeeeee" stroke="none" font-family="Arial" font-size="24px" font-style="normal" font-weight="normal" text-decoration="none" x="600" y="360">UNREGISTERED</text><text fill="#eeeeee" stroke="none" font-family="Arial" font-size="24px" font-style="normal" font-weight="normal" text-decoration="none" x="600" y="390">UNREGISTERED</text><text fill="#eeeeee" stroke="none" font-family="Arial" font-size="24px" font-style="normal" font-weight="normal" text-decoration="none" x="600" y="420">UNREGISTERED</text><text fill="#eeeeee" stroke="none" font-family="Arial" font-size="24px" font-style="normal" font-weight="normal" text-decoration="none" x="600" y="450">UNREGISTERED</text><text fill="#eeeeee" stroke="none" font-family="Arial" font-size="24px" font-style="normal" font-weight="normal" text-decoration="none" x="600" y="480">UNREGISTERED</text><text fill="#eeeeee" stroke="none" font-family="Arial" font-size="24px" font-style="normal" font-weight="normal" text-decoration="none" x="600" y="510">UNREGISTERED</text><text fill="#eeeeee" stroke="none" font-family="Arial" font-size="24px" font-style="normal" font-weight="normal" text-decoration="none" x="600" y="540">UNREGISTERED</text><text fill="#eeeeee" stroke="none" font-family="Arial" font-size="24px" font-style="normal" font-weight="normal" text-decoration="none" x="600" y="570">UNREGISTERED</text><text fill="#eeeeee" stroke="none" font-family="Arial" font-size="24px" font-style="normal" font-weight="normal" text-decoration="none" x="600" y="600">UNREGISTERED</text><text fill="#eeeeee" stroke="none" font-family="Arial" font-size="24px" font-style="normal" font-weight="normal" text-decoration="none" x="800" y="0">UNREGISTERED</text><text fill="#eeeeee" stroke="none" font-family="Arial" font-size="24px" font-style="normal" font-weight="normal" text-decoration="none" x="800" y="30">UNREGISTERED</text><text fill="#eeeeee" stroke="none" font-family="Arial" font-size="24px" font-style="normal" font-weight="normal" text-decoration="none" x="800" y="60">UNREGISTERED</text><text fill="#eeeeee" stroke="none" font-family="Arial" font-size="24px" font-style="normal" font-weight="normal" text-decoration="none" x="800" y="90">UNREGISTERED</text><text fill="#eeeeee" stroke="none" font-family="Arial" font-size="24px" font-style="normal" font-weight="normal" text-decoration="none" x="800" y="120">UNREGISTERED</text><text fill="#eeeeee" stroke="none" font-family="Arial" font-size="24px" font-style="normal" font-weight="normal" text-decoration="none" x="800" y="150">UNREGISTERED</text><text fill="#eeeeee" stroke="none" font-family="Arial" font-size="24px" font-style="normal" font-weight="normal" text-decoration="none" x="800" y="180">UNREGISTERED</text><text fill="#eeeeee" stroke="none" font-family="Arial" font-size="24px" font-style="normal" font-weight="normal" text-decoration="none" x="800" y="210">UNREGISTERED</text><text fill="#eeeeee" stroke="none" font-family="Arial" font-size="24px" font-style="normal" font-weight="normal" text-decoration="none" x="800" y="240">UNREGISTERED</text><text fill="#eeeeee" stroke="none" font-family="Arial" font-size="24px" font-style="normal" font-weight="normal" text-decoration="none" x="800" y="270">UNREGISTERED</text><text fill="#eeeeee" stroke="none" font-family="Arial" font-size="24px" font-style="normal" font-weight="normal" text-decoration="none" x="800" y="300">UNREGISTERED</text><text fill="#eeeeee" stroke="none" font-family="Arial" font-size="24px" font-style="normal" font-weight="normal" text-decoration="none" x="800" y="330">UNREGISTERED</text><text fill="#eeeeee" stroke="none" font-family="Arial" font-size="24px" font-style="normal" font-weight="normal" text-decoration="none" x="800" y="360">UNREGISTERED</text><text fill="#eeeeee" stroke="none" font-family="Arial" font-size="24px" font-style="normal" font-weight="normal" text-decoration="none" x="800" y="390">UNREGISTERED</text><text fill="#eeeeee" stroke="none" font-family="Arial" font-size="24px" font-style="normal" font-weight="normal" text-decoration="none" x="800" y="420">UNREGISTERED</text><text fill="#eeeeee" stroke="none" font-family="Arial" font-size="24px" font-style="normal" font-weight="normal" text-decoration="none" x="800" y="450">UNREGISTERED</text><text fill="#eeeeee" stroke="none" font-family="Arial" font-size="24px" font-style="normal" font-weight="normal" text-decoration="none" x="800" y="480">UNREGISTERED</text><text fill="#eeeeee" stroke="none" font-family="Arial" font-size="24px" font-style="normal" font-weight="normal" text-decoration="none" x="800" y="510">UNREGISTERED</text><text fill="#eeeeee" stroke="none" font-family="Arial" font-size="24px" font-style="normal" font-weight="normal" text-decoration="none" x="800" y="540">UNREGISTERED</text><text fill="#eeeeee" stroke="none" font-family="Arial" font-size="24px" font-style="normal" font-weight="normal" text-decoration="none" x="800" y="570">UNREGISTERED</text><text fill="#eeeeee" stroke="none" font-family="Arial" font-size="24px" font-style="normal" font-weight="normal" text-decoration="none" x="800" y="600">UNREGISTERED</text><g transform="translate(-238,-198) scale(1,1)"><path fill="none" stroke="#000000" d="M 272 248 L 544 248 L 544 408 L 272 408 L 272 248" stroke-miterlimit="10"/></g><g transform="translate(-238,-198) scale(1,1)"><path fill="#ffffff" stroke="none" d="M 272 248 L 272 270 L 412.28076171875 270 L 423.28076171875 259 L 423.28076171875 248 L 272 248"/></g><g transform="translate(-238,-198) scale(1,1)"><path fill="none" stroke="#000000" d="M 272 248 L 272 270 L 412.28076171875 270 L 423.28076171875 259 L 423.28076171875 248 L 272 248 L 272 248" stroke-miterlimit="10"/></g><g transform="translate(-238,-198) scale(1,1)"><g><path fill="none" stroke="none"/><text fill="#000000" stroke="none" font-family="Arial" font-size="13px" font-style="normal" font-weight="normal" text-decoration="none" x="347.32080078125" y="265.5">ms-basket</text></g></g><g transform="translate(-238,-198) scale(1,1)"><g><path fill="none" stroke="none"/><text fill="#000000" stroke="none" font-family="Arial" font-size="13px" font-style="normal" font-weight="bold" text-decoration="none" x="277" y="265.5">component</text></g></g><g transform="translate(-238,-198) scale(1,1)"><path fill="none" stroke="#000000" d="M 800 240 L 1055 240 L 1055 399 L 800 399 L 800 240" stroke-miterlimit="10"/></g><g transform="translate(-238,-198) scale(1,1)"><path fill="#ffffff" stroke="none" d="M 800 240 L 800 262 L 973.50439453125 262 L 984.50439453125 251 L 984.50439453125 240 L 800 240"/></g><g transform="translate(-238,-198) scale(1,1)"><path fill="none" stroke="#000000" d="M 800 240 L 800 262 L 973.50439453125 262 L 984.50439453125 251 L 984.50439453125 240 L 800 240 L 800 240" stroke-miterlimit="10"/></g><g transform="translate(-238,-198) scale(1,1)"><g><path fill="none" stroke="none"/><text fill="#000000" stroke="none" font-family="Arial" font-size="13px" font-style="normal" font-weight="normal" text-decoration="none" x="875.32080078125" y="257.5">ms-membership</text></g></g><g transform="translate(-238,-198) scale(1,1)"><g><path fill="none" stroke="none"/><text fill="#000000" stroke="none" font-family="Arial" font-size="13px" font-style="normal" font-weight="bold" text-decoration="none" x="805" y="257.5">component</text></g></g><g transform="translate(-238,-198) scale(1,1)"><path fill="none" stroke="#000000" d="M 248 608 L 511 608 L 511 759 L 248 759 L 248 608" stroke-miterlimit="10"/></g><g transform="translate(-238,-198) scale(1,1)"><path fill="#ffffff" stroke="none" d="M 248 608 L 248 630 L 393.33984375 630 L 404.33984375 619 L 404.33984375 608 L 248 608"/></g><g transform="translate(-238,-198) scale(1,1)"><path fill="none" stroke="#000000" d="M 248 608 L 248 630 L 393.33984375 630 L 404.33984375 619 L 404.33984375 608 L 248 608 L 248 608" stroke-miterlimit="10"/></g><g transform="translate(-238,-198) scale(1,1)"><g><path fill="none" stroke="none"/><text fill="#000000" stroke="none" font-family="Arial" font-size="13px" font-style="normal" font-weight="normal" text-decoration="none" x="323.32080078125" y="625.5">ms-product</text></g></g><g transform="translate(-238,-198) scale(1,1)"><g><path fill="none" stroke="none"/><text fill="#000000" stroke="none" font-family="Arial" font-size="13px" font-style="normal" font-weight="bold" text-decoration="none" x="253" y="625.5">component</text></g></g><g transform="translate(-238,-198) scale(1,1)"><rect fill="#C0C0C0" stroke="none" x="441" y="271" width="83.30810546875" height="44" opacity="0.2"/></g><g transform="translate(-238,-198) scale(1,1)"><rect fill="#ffffff" stroke="none" x="434" y="264" width="83.30810546875" height="44"/></g><g transform="translate(-238,-198) scale(1,1)"><path fill="none" stroke="#000000" d="M 434 264 L 517.30810546875 264 L 517.30810546875 308 L 434 308 L 434 264 Z Z" stroke-miterlimit="10"/></g><g transform="translate(-238,-198) scale(1,1)"><rect fill="#ffffff" stroke="none" x="424" y="271" width="20" height="10"/></g><g transform="translate(-238,-198) scale(1,1)"><path fill="none" stroke="#000000" d="M 424 271 L 444 271 L 444 281 L 424 281 L 424 271 Z Z" stroke-miterlimit="10"/></g><g transform="translate(-238,-198) scale(1,1)"><rect fill="#ffffff" stroke="none" x="424" y="291" width="20" height="10"/></g><g transform="translate(-238,-198) scale(1,1)"><path fill="none" stroke="#000000" d="M 424 291 L 444 291 L 444 301 L 424 301 L 424 291 Z Z" stroke-miterlimit="10"/></g><g transform="translate(-238,-198) scale(1,1)"><g><path fill="none" stroke="none"/><text fill="#000000" stroke="none" font-family="Arial" font-size="13px" font-style="normal" font-weight="bold" text-decoration="none" x="450.674072265625" y="283.5">ms-basket</text></g></g><g transform="translate(-238,-198) scale(1,1)"><rect fill="#C0C0C0" stroke="none" x="937" y="295" width="119.419921875" height="55" opacity="0.2"/></g><g transform="translate(-238,-198) scale(1,1)"><rect fill="#ffffff" stroke="none" x="930" y="288" width="119.419921875" height="55"/></g><g transform="translate(-238,-198) scale(1,1)"><path fill="none" stroke="#000000" d="M 930 288 L 1049.419921875 288 L 1049.419921875 343 L 930 343 L 930 288 Z Z" stroke-miterlimit="10"/></g><g transform="translate(-238,-198) scale(1,1)"><rect fill="#ffffff" stroke="none" x="920" y="295" width="20" height="10"/></g><g transform="translate(-238,-198) scale(1,1)"><path fill="none" stroke="#000000" d="M 920 295 L 940 295 L 940 305 L 920 305 L 920 295 Z Z" stroke-miterlimit="10"/></g><g transform="translate(-238,-198) scale(1,1)"><rect fill="#ffffff" stroke="none" x="920" y="315" width="20" height="10"/></g><g transform="translate(-238,-198) scale(1,1)"><path fill="none" stroke="#000000" d="M 920 315 L 940 315 L 940 325 L 920 325 L 920 315 Z Z" stroke-miterlimit="10"/></g><g transform="translate(-238,-198) scale(1,1)"><g><path fill="none" stroke="none"/><text fill="#000000" stroke="none" font-family="Arial" font-size="13px" font-style="normal" font-weight="bold" text-decoration="none" x="948.1181640625" y="307.5">ms-membership</text></g></g><g transform="translate(-238,-198) scale(1,1)"><rect fill="#C0C0C0" stroke="none" x="417" y="679" width="90.5" height="55" opacity="0.2"/></g><g transform="translate(-238,-198) scale(1,1)"><rect fill="#ffffff" stroke="none" x="410" y="672" width="90.5" height="55"/></g><g transform="translate(-238,-198) scale(1,1)"><path fill="none" stroke="#000000" d="M 410 672 L 500.5 672 L 500.5 727 L 410 727 L 410 672 Z Z" stroke-miterlimit="10"/></g><g transform="translate(-238,-198) scale(1,1)"><rect fill="#ffffff" stroke="none" x="400" y="679" width="20" height="10"/></g><g transform="translate(-238,-198) scale(1,1)"><path fill="none" stroke="#000000" d="M 400 679 L 420 679 L 420 689 L 400 689 L 400 679 Z Z" stroke-miterlimit="10"/></g><g transform="translate(-238,-198) scale(1,1)"><rect fill="#ffffff" stroke="none" x="400" y="699" width="20" height="10"/></g><g transform="translate(-238,-198) scale(1,1)"><path fill="none" stroke="#000000" d="M 400 699 L 420 699 L 420 709 L 400 709 L 400 699 Z Z" stroke-miterlimit="10"/></g><g transform="translate(-238,-198) scale(1,1)"><g><path fill="none" stroke="none"/><text fill="#000000" stroke="none" font-family="Arial" font-size="13px" font-style="normal" font-weight="bold" text-decoration="none" x="427.740478515625" y="691.5">ms-product</text></g></g><g transform="translate(-238,-198) scale(1,1)"><path fill="#C0C0C0" stroke="none" d="M 403.332275390625 482.5 C 403.332275390625 476.1487248 408.481000190625 471 414.832275390625 471 C 421.183550590625 471 426.332275390625 476.1487248 426.332275390625 482.5 C 426.332275390625 488.8512752 421.183550590625 494 414.832275390625 494 C 408.481000190625 494 403.332275390625 488.8512752 403.332275390625 482.5 Z" opacity="0.2"/></g><g transform="translate(-238,-198) scale(1,1)"><path fill="none" stroke="#000000" d="M 395.5472281256214 473.958838920511 A 11.5 11.5 0 0 1 418.4527718743786 476.041161079489" stroke-miterlimit="10"/></g><g transform="translate(-238,-198) scale(1,1)"><path fill="#ffffff" stroke="none" d="M 399.332275390625 475.5 C 399.332275390625 470.8055792 403.137854590625 467 407.832275390625 467 C 412.526696190625 467 416.332275390625 470.8055792 416.332275390625 475.5 C 416.332275390625 480.1944208 412.526696190625 484 407.832275390625 484 C 403.137854590625 484 399.332275390625 480.1944208 399.332275390625 475.5 Z"/></g><g transform="translate(-238,-198) scale(1,1)"><path fill="none" stroke="#000000" d="M 399.332275390625 475.5 C 399.332275390625 470.8055792 403.137854590625 467 407.832275390625 467 C 412.526696190625 467 416.332275390625 470.8055792 416.332275390625 475.5 C 416.332275390625 480.1944208 412.526696190625 484 407.832275390625 484 C 403.137854590625 484 399.332275390625 480.1944208 399.332275390625 475.5 Z" stroke-miterlimit="10"/></g><g transform="translate(-238,-198) scale(1,1)"><g><path fill="none" stroke="none"/><text fill="#000000" stroke="none" font-family="Arial" font-size="13px" font-style="normal" font-weight="bold" text-decoration="none" x="367.010498046875" y="506.5">REST product</text></g></g><g transform="translate(-238,-198) scale(1,1)"><path fill="none" stroke="#000000" d="M 407 608 L 407 487" stroke-miterlimit="10"/></g><g transform="translate(-238,-198) scale(1,1)"><path fill="none" stroke="#000000" d="M 408 408 L 408 464" stroke-miterlimit="10"/></g><g transform="translate(-238,-198) scale(1,1)"><path fill="#C0C0C0" stroke="none" d="M 681.792236328125 330.5 C 681.792236328125 324.1487248 686.940961128125 319 693.292236328125 319 C 699.643511528125 319 704.792236328125 324.1487248 704.792236328125 330.5 C 704.792236328125 336.8512752 699.643511528125 342 693.292236328125 342 C 686.940961128125 342 681.792236328125 336.8512752 681.792236328125 330.5 Z" opacity="0.2"/></g><g transform="translate(-238,-198) scale(1,1)"><path fill="none" stroke="#000000" d="M 686 334.5 A 11.5 11.5 0 0 1 686 311.5" stroke-miterlimit="10"/></g><g transform="translate(-238,-198) scale(1,1)"><path fill="#ffffff" stroke="none" d="M 677.792236328125 323.5 C 677.792236328125 318.8055792 681.597815528125 315 686.292236328125 315 C 690.986657128125 315 694.792236328125 318.8055792 694.792236328125 323.5 C 694.792236328125 328.1944208 690.986657128125 332 686.292236328125 332 C 681.597815528125 332 677.792236328125 328.1944208 677.792236328125 323.5 Z"/></g><g transform="translate(-238,-198) scale(1,1)"><path fill="none" stroke="#000000" d="M 677.792236328125 323.5 C 677.792236328125 318.8055792 681.597815528125 315 686.292236328125 315 C 690.986657128125 315 694.792236328125 318.8055792 694.792236328125 323.5 C 694.792236328125 328.1944208 690.986657128125 332 686.292236328125 332 C 681.597815528125 332 677.792236328125 328.1944208 677.792236328125 323.5 Z" stroke-miterlimit="10"/></g><g transform="translate(-238,-198) scale(1,1)"><g><path fill="none" stroke="none"/><text fill="#000000" stroke="none" font-family="Arial" font-size="13px" font-style="normal" font-weight="bold" text-decoration="none" x="631.38818359375" y="354.5">REST membership</text></g></g><g transform="translate(-238,-198) scale(1,1)"><path fill="none" stroke="#000000" d="M 544 323 L 674.792236328125 323" stroke-miterlimit="10"/></g><g transform="translate(-238,-198) scale(1,1)"><path fill="none" stroke="#000000" d="M 800 323 L 697.792236328125 323" stroke-miterlimit="10"/></g><g transform="translate(-238,-198) scale(1,1)"><g><path fill="none" stroke="none"/><text fill="#000000" stroke="none" font-family="Arial" font-size="13px" font-style="normal" font-weight="normal" text-decoration="none" x="357" y="234">Container docker</text></g></g><g transform="translate(-238,-198) scale(1,1)"><g><path fill="none" stroke="none"/><text fill="#000000" stroke="none" font-family="Arial" font-size="13px" font-style="normal" font-weight="normal" text-decoration="none" x="333" y="778">Container docker</text></g></g><g transform="translate(-238,-198) scale(1,1)"><g><path fill="none" stroke="none"/><text fill="#000000" stroke="none" font-family="Arial" font-size="13px" font-style="normal" font-weight="normal" text-decoration="none" x="885" y="226">Container docker</text></g></g><g transform="translate(-238,-198) scale(1,1)"><rect fill="#ffffff" stroke="none" x="793" y="315" width="14" height="14"/></g><g transform="translate(-238,-198) scale(1,1)"><path fill="none" stroke="#000000" d="M 793 315 L 807 315 L 807 329 L 793 329 L 793 315 Z Z" stroke-miterlimit="10"/></g><g transform="translate(-238,-198) scale(1,1)"><g><path fill="none" stroke="none"/><text fill="#000000" stroke="none" font-family="Arial" font-size="13px" font-style="normal" font-weight="normal" text-decoration="none" x="770.0400390625" y="313">9070</text></g></g><g transform="translate(-238,-198) scale(1,1)"><rect fill="#ffffff" stroke="none" x="400" y="601" width="14" height="14"/></g><g transform="translate(-238,-198) scale(1,1)"><path fill="none" stroke="#000000" d="M 400 601 L 414 601 L 414 615 L 400 615 L 400 601 Z Z" stroke-miterlimit="10"/></g><g transform="translate(-238,-198) scale(1,1)"><g><path fill="none" stroke="none"/><text fill="#000000" stroke="none" font-family="Arial" font-size="13px" font-style="normal" font-weight="normal" text-decoration="none" x="377.0400390625" y="599">9060</text></g></g><g transform="translate(-238,-198) scale(1,1)"><rect fill="#ffffff" stroke="none" x="913" y="313" width="14" height="14"/></g><g transform="translate(-238,-198) scale(1,1)"><path fill="none" stroke="#000000" d="M 913 313 L 927 313 L 927 327 L 913 327 L 913 313 Z Z" stroke-miterlimit="10"/></g><g transform="translate(-238,-198) scale(1,1)"><g><path fill="none" stroke="none"/><text fill="#000000" stroke="none" font-family="Arial" font-size="13px" font-style="normal" font-weight="normal" text-decoration="none" x="890.0400390625" y="311">8070</text></g></g><g transform="translate(-238,-198) scale(1,1)"><path fill="none" stroke="#000000" d="M 808 322 L 912 320" stroke-miterlimit="10" stroke-dasharray="3"/></g><g transform="translate(-238,-198) scale(1,1)"><rect fill="#ffffff" stroke="none" x="393" y="687" width="14" height="14"/></g><g transform="translate(-238,-198) scale(1,1)"><path fill="none" stroke="#000000" d="M 393 687 L 407 687 L 407 701 L 393 701 L 393 687 Z Z" stroke-miterlimit="10"/></g><g transform="translate(-238,-198) scale(1,1)"><g><path fill="none" stroke="none"/><text fill="#000000" stroke="none" font-family="Arial" font-size="13px" font-style="normal" font-weight="normal" text-decoration="none" x="360.0400390625" y="706">8060</text></g></g><g transform="translate(-238,-198) scale(1,1)"><path fill="none" stroke="#000000" d="M 401 686 L 406 616" stroke-miterlimit="10" stroke-dasharray="3"/></g><g transform="translate(-238,-198) scale(1,1)"><g><path fill="none" stroke="none"/><text fill="#000000" stroke="none" font-family="Arial" font-size="13px" font-style="normal" font-weight="normal" text-decoration="none" x="373" y="658">tcp</text></g></g><g transform="translate(-238,-198) scale(1,1)"><g><path fill="none" stroke="none"/><text fill="#000000" stroke="none" font-family="Arial" font-size="13px" font-style="normal" font-weight="normal" text-decoration="none" x="845" y="338">tcp</text></g></g><g transform="translate(-238,-198) scale(1,1)"><rect fill="#ffffff" stroke="none" x="417" y="271" width="14" height="14"/></g><g transform="translate(-238,-198) scale(1,1)"><path fill="none" stroke="#000000" d="M 417 271 L 431 271 L 431 285 L 417 285 L 417 271 Z Z" stroke-miterlimit="10"/></g><g transform="translate(-238,-198) scale(1,1)"><g><path fill="none" stroke="none"/><text fill="#000000" stroke="none" font-family="Arial" font-size="13px" font-style="normal" font-weight="normal" text-decoration="none" x="393.0400390625" y="300">8090</text></g></g></g></svg>